# Blender 4.2.1 LTS
# www.blender.org
mtllib Pappers.mtl
o Cube.005
v -0.056429 -0.115600 0.056644
v -0.115600 -0.115600 0.027650
v -0.115600 0.115600 0.027650
v -0.056429 0.115600 0.056644
v -0.115600 -0.115600 -0.027650
v -0.056429 -0.115600 -0.056644
v -0.056429 0.115600 -0.056644
v -0.115600 0.115600 -0.027650
v 0.115600 -0.115600 0.027650
v 0.056429 -0.115600 0.056644
v 0.056429 0.115600 0.056644
v 0.115600 0.115600 0.027650
v 0.056429 -0.115600 -0.056644
v 0.115600 -0.115600 -0.027650
v 0.115600 0.115600 -0.027650
v 0.056429 0.115600 -0.056644
v -0.074273 -0.115600 0.053022
v -0.108209 -0.115600 0.036394
v -0.108209 0.115600 0.036394
v -0.074273 0.115600 0.053022
v -0.108209 -0.115600 -0.036394
v -0.074273 -0.115600 -0.053022
v -0.074273 0.115600 -0.053022
v -0.108209 0.115600 -0.036394
v 0.108209 -0.115600 0.036394
v 0.074273 -0.115600 0.053022
v 0.074273 0.115600 0.053022
v 0.108209 0.115600 0.036394
v 0.074273 -0.115600 -0.053022
v 0.108209 -0.115600 -0.036394
v 0.108209 0.115600 -0.036394
v 0.074273 0.115600 -0.053022
v -0.100875 0.177621 0.021506
v -0.100875 0.177621 -0.021506
v 0.049241 0.177621 0.044056
v -0.049241 0.177621 0.044056
v 0.100875 0.177621 0.021506
v 0.100875 0.177621 -0.021506
v 0.049241 0.177621 -0.044056
v -0.049241 0.177621 -0.044056
v -0.064812 0.177621 0.041239
v -0.094425 0.177621 0.028306
v -0.094425 0.177621 -0.028306
v -0.064812 0.177621 -0.041239
v 0.064812 0.177621 -0.041239
v 0.094425 0.177621 -0.028306
v 0.094425 0.177621 0.028306
v 0.064812 0.177621 0.041239
vn 0.1000 -0.0000 0.9950
vn 0.0997 0.1036 0.9896
vn -0.0997 0.1036 0.9896
vn -0.1000 -0.0000 0.9950
vn 1.0000 -0.0000 -0.0000
vn 0.9936 0.1126 -0.0000
vn -0.0997 0.1036 -0.9896
vn -0.1000 -0.0000 -0.9950
vn -0.3221 -0.0000 -0.9467
vn -0.3162 0.1086 -0.9425
vn -1.0000 -0.0000 -0.0000
vn -0.9936 0.1126 -0.0000
vn 0.0997 0.1036 -0.9896
vn 0.1000 -0.0000 -0.9950
vn -0.6149 -0.0000 0.7886
vn -0.6065 0.1166 0.7865
vn -0.7504 0.1183 0.6504
vn -0.7637 -0.0000 0.6456
vn 0.9730 0.2310 -0.0000
vn -0.6065 0.1166 -0.7865
vn -0.6149 -0.0000 -0.7886
vn -0.7637 -0.0000 -0.6456
vn -0.7504 0.1183 -0.6504
vn 0.3221 -0.0000 0.9467
vn 0.3162 0.1086 0.9425
vn 0.3162 0.1086 -0.9425
vn 0.3221 -0.0000 -0.9467
vn 0.6065 0.1166 0.7865
vn 0.6149 -0.0000 0.7886
vn 0.7637 -0.0000 0.6456
vn 0.7504 0.1183 0.6504
vn 0.7504 0.1183 -0.6504
vn 0.7637 -0.0000 -0.6456
vn 0.6149 -0.0000 -0.7886
vn 0.6065 0.1166 -0.7865
vn -0.3162 0.1086 0.9425
vn -0.3221 -0.0000 0.9467
vn -0.0000 -1.0000 -0.0000
vn -0.0000 1.0000 -0.0000
vn -0.2941 0.2175 -0.9307
vn -0.0873 0.2066 -0.9745
vn -0.5695 0.2336 -0.7881
vn 0.0873 0.2066 -0.9745
vn 0.5695 0.2336 0.7881
vn 0.2941 0.2175 0.9307
vn -0.7249 0.2407 -0.6455
vn -0.2941 0.2175 0.9307
vn -0.5695 0.2336 0.7881
vn 0.0873 0.2066 0.9745
vn 0.7249 0.2407 0.6455
vn -0.0873 0.2066 0.9745
vn 0.2941 0.2175 -0.9307
vn 0.5695 0.2336 -0.7881
vn -0.7249 0.2407 0.6455
vn -0.9730 0.2310 -0.0000
vn 0.7249 0.2407 -0.6455
vt 0.722462 0.186358
vt 0.706644 0.581528
vt 0.267781 0.579915
vt 0.287170 0.166225
vt 0.544536 0.245820
vt 0.544536 0.069805
vt 0.652753 0.064625
vt 0.652753 0.240640
vt 0.607619 0.511057
vt 0.607619 0.747462
vt 0.582444 0.745863
vt 0.582444 0.509458
vt 0.303731 0.240640
vt 0.303731 0.064625
vt 0.411948 0.069805
vt 0.411948 0.245820
vt 0.766835 0.511057
vt 0.766835 0.747462
vt 0.256274 0.431589
vt 0.256274 0.192828
vt 0.275446 0.195035
vt 0.275446 0.433796
vt 0.533586 0.824533
vt 0.509037 0.825708
vt 0.510419 0.814501
vt 0.529513 0.813587
vt 0.432035 0.069817
vt 0.432035 0.245831
vt 0.759083 0.286045
vt 0.759083 0.523633
vt 0.733829 0.525015
vt 0.733829 0.287427
vt 0.792009 0.509458
vt 0.792009 0.745863
vt 0.230437 0.476522
vt 0.230437 0.714110
vt 0.205344 0.712675
vt 0.205344 0.475087
vt 0.524449 0.245831
vt 0.524449 0.069817
vt 0.212881 0.580514
vt 0.232270 0.166824
vt 0.237254 0.199599
vt 0.247599 0.436346
vt 0.185392 0.441038
vt 0.175047 0.204291
vt 0.478242 0.067665
vt 0.478242 0.243680
vt 0.176869 0.677070
vt 0.176869 0.439483
vt 0.244573 0.439553
vt 0.244573 0.677141
vt 0.374987 0.650057
vt 0.367777 0.662952
vt 0.334675 0.687475
vt 0.306341 0.692817
vt 0.218111 0.692817
vt 0.189777 0.687475
vt 0.156675 0.662952
vt 0.149465 0.650057
vt 0.149465 0.568502
vt 0.156675 0.555607
vt 0.189777 0.531083
vt 0.207183 0.525742
vt 0.317269 0.525742
vt 0.334675 0.531083
vt 0.367777 0.555607
vt 0.374987 0.568502
vt 0.538308 0.871217
vt 0.533941 0.878178
vt 0.513891 0.891417
vt 0.503349 0.894301
vt 0.436670 0.894301
vt 0.426128 0.891417
vt 0.406078 0.878178
vt 0.401711 0.871217
vt 0.401711 0.827188
vt 0.406078 0.820227
vt 0.426128 0.806987
vt 0.436670 0.804104
vt 0.503349 0.804104
vt 0.513891 0.806987
vt 0.533941 0.820227
vt 0.538308 0.827188
vt 0.509960 0.877383
vt 0.505750 0.877115
vt 0.507983 0.865640
vt 0.511656 0.865848
vt 0.493998 0.825222
vt 0.483516 0.825710
vt 0.481184 0.814485
vt 0.489631 0.814026
vt 0.536587 0.877383
vt 0.534891 0.865848
vt 0.567687 0.928903
vt 0.468398 0.932896
vt 0.462286 0.765835
vt 0.599973 0.764911
vt 0.478959 0.825708
vt 0.477576 0.814501
vt 0.504111 0.916150
vt 0.342873 0.928312
vt 0.342026 0.767080
vt 0.478360 0.758132
vt 0.673765 0.907999
vt 0.652549 0.761705
vt 0.412541 0.877359
vt 0.408345 0.877119
vt 0.408744 0.865847
vt 0.412126 0.866018
vt 0.388096 0.925414
vt 0.327280 0.921745
vt 0.330368 0.762197
vt 0.391893 0.767612
vt 0.504480 0.825710
vt 0.498364 0.814026
vt 0.506811 0.814485
vt 0.451203 0.824777
vt 0.448022 0.825296
vt 0.445984 0.813984
vt 0.448611 0.813587
vt 0.454409 0.824533
vt 0.458482 0.813587
vt 0.281574 0.754673
vt 0.649323 0.749978
vt 0.601158 0.924952
vt 0.270904 0.912889
vt 0.540797 0.877115
vt 0.538565 0.865640
s 1
usemtl Material.005
f 10/1/1 11/2/2 4/3/3 1/4/4
f 14/5/5 15/6/6 12/7/6 9/8/5
f 7/9/7 6/10/8 22/11/9 23/12/10
f 2/13/11 3/14/12 8/15/12 5/16/11
f 6/10/8 7/9/7 16/17/13 13/18/14
f 18/19/15 19/20/16 3/21/17 2/22/18
f 12/23/6 15/24/6 38/25/19 37/26/19
f 24/27/20 21/28/21 5/16/22 8/15/23
f 11/29/2 10/30/1 26/31/24 27/32/25
f 32/33/26 29/34/27 13/18/14 16/17/13
f 28/35/28 25/36/29 9/37/30 12/38/31
f 15/6/32 14/5/33 30/39/34 31/40/35
f 1/4/4 4/3/3 20/41/36 17/42/37
f 19/43/16 18/44/15 17/45/37 20/46/36
f 21/28/21 24/27/20 23/47/10 22/48/9
f 29/48/27 32/47/26 31/40/35 30/39/34
f 25/49/29 28/50/28 27/51/25 26/52/24
f 5/53/38 21/54/38 22/55/38 6/56/38 13/57/38 29/58/38 30/59/38 14/60/38 9/61/38 25/62/38 26/63/38 10/64/38 1/65/38 17/66/38 18/67/38 2/68/38
f 38/69/39 46/70/39 45/71/39 39/72/39 40/73/39 44/74/39 43/75/39 34/76/39 33/77/39 42/78/39 41/79/39 36/80/39 35/81/39 48/82/39 47/83/39 37/84/39
f 7/85/7 23/86/10 44/87/40 40/88/41
f 23/89/10 24/90/20 43/91/42 44/92/40
f 16/93/13 7/85/7 40/88/41 39/94/43
f 27/95/25 28/96/28 47/97/44 48/98/45
f 24/90/20 8/99/23 34/100/46 43/91/42
f 19/101/16 20/102/36 41/103/47 42/104/48
f 11/105/2 27/95/25 48/98/45 35/106/49
f 28/107/28 12/108/31 37/109/50 47/110/44
f 20/111/36 4/112/3 36/113/51 41/114/47
f 31/115/35 32/89/26 45/116/52 46/117/53
f 3/118/17 19/119/16 42/120/48 33/121/54
f 8/99/12 3/122/12 33/123/55 34/100/55
f 15/24/32 31/115/35 46/117/53 38/25/56
f 4/124/3 11/125/2 35/126/49 36/127/51
f 32/128/26 16/93/13 39/94/43 45/129/52
