# Blender 4.2.1 LTS
# www.blender.org
mtllib building4.mtl
o Cube.018
v -1.000000 3.000000 1.000000
v 1.000000 3.000000 1.000000
v -1.000000 3.000000 -1.000000
v 1.000000 3.000000 -1.000000
v -1.000000 -3.000000 1.000000
v 1.000000 -3.000000 1.000000
v -1.000000 -3.000000 -1.000000
v 1.000000 -3.000000 -1.000000
vn -0.0000 1.0000 -0.0000
vn -0.0000 -0.0000 -1.0000
vn -0.0000 -1.0000 -0.0000
vn -0.0000 -0.0000 1.0000
vn -1.0000 -0.0000 -0.0000
vn 1.0000 -0.0000 -0.0000
vt 0.116295 0.289377
vt 0.116295 0.267883
vt 0.146726 0.267883
vt 0.146726 0.289377
vt 0.997881 0.994345
vt 0.003885 0.994345
vt 0.003886 -0.003669
vt 0.997880 -0.003669
vt 0.362865 0.356029
vt 0.362865 0.290328
vt 0.455885 0.290328
vt 0.455885 0.356029
vt 0.005929 0.011443
vt 0.995633 0.011443
vt 0.995633 0.995550
vt 0.005929 0.995550
vt -0.002232 1.002981
vt -0.002232 -0.000633
vt 1.016499 -0.000633
vt 1.016499 1.002981
vt 1.000522 0.004187
vt 1.000522 0.998161
vt 0.000077 0.998161
vt 0.000077 0.004187
s 0
usemtl Material.013
f 1/1/1 2/2/1 4/3/1 3/4/1
f 3/5/2 4/6/2 8/7/2 7/8/2
f 7/9/3 8/10/3 6/11/3 5/12/3
f 5/13/4 6/14/4 2/15/4 1/16/4
f 3/17/5 7/18/5 5/19/5 1/20/5
f 8/21/6 4/22/6 2/23/6 6/24/6
