# Blender 4.2.1 LTS
# www.blender.org
mtllib building2.mtl
o Cube.016
v -1.000000 5.000000 1.000000
v 1.000000 5.000000 1.000000
v -1.000000 5.000000 -1.000000
v 1.000000 5.000000 -1.000000
v -1.000000 -5.000000 1.000000
v 1.000000 -5.000000 1.000000
v -1.000000 -5.000000 -1.000000
v 1.000000 -5.000000 -1.000000
vn -0.0000 1.0000 -0.0000
vn -0.0000 -0.0000 -1.0000
vn -0.0000 -1.0000 -0.0000
vn -0.0000 -0.0000 1.0000
vn -1.0000 -0.0000 -0.0000
vn 1.0000 -0.0000 -0.0000
vt 0.001976 0.380885
vt 0.001976 0.148239
vt 0.331357 0.148239
vt 0.331357 0.380885
vt 0.625247 0.994345
vt 0.376520 0.994345
vt 0.376520 -0.003669
vt 0.625247 -0.003669
vt 0.335310 0.380885
vt 0.335310 0.148239
vt 0.664690 0.148239
vt 0.664690 0.380885
vt 0.005929 0.011443
vt 0.244071 0.011443
vt 0.244071 0.995550
vt 0.005929 0.995550
vt 0.628744 1.002981
vt 0.628744 -0.000633
vt 0.873022 -0.000633
vt 0.873022 1.002981
vt 0.491709 0.004187
vt 0.491709 0.998161
vt 0.255929 0.998161
vt 0.255929 0.004187
s 0
usemtl Material.012
f 1/1/1 2/2/1 4/3/1 3/4/1
f 3/5/2 4/6/2 8/7/2 7/8/2
f 7/9/3 8/10/3 6/11/3 5/12/3
f 5/13/4 6/14/4 2/15/4 1/16/4
f 3/17/5 7/18/5 5/19/5 1/20/5
f 8/21/6 4/22/6 2/23/6 6/24/6
